<svg xmlns="http://www.w3.org/2000/svg" viewBox="0 0 24 24" fill="currentColor" aria-hidden="true">
  <path d="M12 0a12 12 0 0 0-4.37 23.17c-.1-.94-.2-2.4.04-3.43.22-.93 1.4-5.94 1.4-5.94s-.36-.72-.36-1.78c0-1.66.97-2.9 2.17-2.9 1.02 0 1.51.77 1.51 1.69 0 1.03-.66 2.57-1 4-.28 1.2.6 2.18 1.79 2.18 2.15 0 3.8-2.27 3.8-5.54 0-2.9-2.08-4.92-5.05-4.92-3.44 0-5.46 2.58-5.46 5.25 0 1.04.4 2.16.9 2.76.1.12.11.23.08.35-.09.36-.28 1.13-.32 1.29-.05.21-.17.25-.39.15-1.45-.67-2.36-2.79-2.36-4.5 0-3.66 2.66-7.02 7.66-7.02 4.02 0 7.15 2.86 7.15 6.7 0 4-2.52 7.21-6.02 7.21-1.18 0-2.28-.61-2.66-1.34l-.72 2.75c-.26 1-.96 2.26-1.43 3.03A12 12 0 1 0 12 0z"/>
</svg>
